<svg width="50" height="77" viewBox="0 0 50 77" fill="none" xmlns="http://www.w3.org/2000/svg">
<g filter="url(#filter0_d_147_40)">
<path d="M21.9091 62H4V15.4545H21.7273C26.5152 15.4545 30.6515 16.3864 34.1364 18.25C37.6364 20.0985 40.3333 22.7651 42.2273 26.25C44.1364 29.7197 45.0909 33.8788 45.0909 38.7273C45.0909 43.5758 44.1439 47.7424 42.25 51.2273C40.3561 54.697 37.6742 57.3636 34.2045 59.2273C30.7348 61.0758 26.6364 62 21.9091 62ZM16.6364 51.2727H21.4545C23.7576 51.2727 25.7197 50.9015 27.3409 50.1591C28.9773 49.4167 30.2197 48.1364 31.0682 46.3182C31.9318 44.5 32.3636 41.9697 32.3636 38.7273C32.3636 35.4848 31.9242 32.9545 31.0455 31.1364C30.1818 29.3182 28.9091 28.0379 27.2273 27.2955C25.5606 26.553 23.5152 26.1818 21.0909 26.1818H16.6364V51.2727Z" fill="#9747FF"/>
</g>
<path d="M18.2262 35.7877L18.2237 35.7899L18.2196 35.7935L18.2089 35.803C18.2007 35.8104 18.1902 35.82 18.1777 35.8317C18.1528 35.855 18.1196 35.887 18.0797 35.9276C17.9998 36.0088 17.8922 36.125 17.7678 36.2772C17.5194 36.5812 17.2014 37.0318 16.9034 37.6355C16.3024 38.8535 15.7973 40.6687 16.0812 43.097C16.3613 45.4928 17.2268 47.4961 18.6916 48.8928C20.1511 50.2846 22.1276 51 24.5172 51C26.982 51 28.9487 49.9265 30.2513 48.0839C31.542 46.2583 32.1179 43.7689 31.98 41.0472C31.848 38.4362 30.6244 36.4553 29.5437 34.7055C29.4393 34.5365 29.3363 34.3697 29.2357 34.2047C28.0568 32.2707 27.1258 30.4879 27.352 27.9944C27.3751 27.7407 27.3043 27.4875 27.1575 27.2979C27.0106 27.1083 26.8015 27 26.582 27C26.1876 27 25.7364 27.1419 25.2995 27.3552C24.8491 27.5751 24.3607 27.897 23.8824 28.3163C22.9277 29.1533 21.9733 30.4148 21.4638 32.1019C20.9555 33.7849 21.213 35.3891 21.5853 36.5558C21.8298 37.322 21.5646 38.0796 21.1655 38.2998C20.8126 38.4947 20.3903 38.3312 20.2082 37.9294L19.3747 36.0894C19.2693 35.8566 19.0815 35.6891 18.8607 35.631C18.64 35.5728 18.4077 35.6305 18.2262 35.7877Z" fill="url(#paint0_linear_147_40)"/>
<defs>
<filter id="filter0_d_147_40" x="0" y="15.4545" width="49.0909" height="54.5455" filterUnits="userSpaceOnUse" color-interpolation-filters="sRGB">
<feFlood flood-opacity="0" result="BackgroundImageFix"/>
<feColorMatrix in="SourceAlpha" type="matrix" values="0 0 0 0 0 0 0 0 0 0 0 0 0 0 0 0 0 0 127 0" result="hardAlpha"/>
<feOffset dy="4"/>
<feGaussianBlur stdDeviation="2"/>
<feComposite in2="hardAlpha" operator="out"/>
<feColorMatrix type="matrix" values="0 0 0 0 0 0 0 0 0 0 0 0 0 0 0 0 0 0 0.25 0"/>
<feBlend mode="normal" in2="BackgroundImageFix" result="effect1_dropShadow_147_40"/>
<feBlend mode="normal" in="SourceGraphic" in2="effect1_dropShadow_147_40" result="shape"/>
</filter>
<linearGradient id="paint0_linear_147_40" x1="25.2915" y1="27" x2="24.2459" y2="50.3879" gradientUnits="userSpaceOnUse">
<stop offset="0.32" stop-color="#FB47FF"/>
<stop offset="0.73" stop-color="#5E6EFF"/>
</linearGradient>
</defs>
</svg>
